<svg height="512pt" viewBox="0 0 512 512.00003" width="512pt" xmlns="http://www.w3.org/2000/svg"><path d="m472.789062 0h-373.929687c-21.613281.046875-39.121094 17.554688-39.167969 39.167969v55.023437c-7.550781 13.890625-50.789062 95.65625-59.171875 160.84375-1.390625 11.410156.019531 22.992188 4.113281 33.734375l32.429688 127.238281c.757812 3.011719 1.378906 6.050782 2.003906 9.105469.621094 3.054688 1.253906 6.179688 2.023438 9.277344 1.070312 4.558594 1.585937 9.230469 1.535156 13.917969v46.625c0 9.425781 7.640625 17.066406 17.066406 17.066406h110.933594c9.425781 0 17.066406-7.640625 17.066406-17.066406l.265625-47.597656c-.011719-1.964844.109375-3.925782.367188-5.871094 1.101562-7.261719 3.160156-14.347656 6.117187-21.070313l.65625-1.585937c19.796875-58.308594 8.464844-122.308594 3.097656-145.742188h274.59375c21.613282-.046875 39.121094-17.554687 39.167969-39.167968v-194.730469c-.046875-21.613281-17.554687-39.121094-39.167969-39.167969zm-396.03125 266.1875c6.5 4.484375 14.207032 6.882812 22.101563 6.878906h20.164063c-1.847657 9.546875-9.921876 16.636719-19.625 17.238282-5.597657.296874-11.0625-1.753907-15.078126-5.660157-4.835937-4.578125-7.570312-10.945312-7.5625-17.601562zm0-227.019531c.015626-12.199219 9.902344-22.085938 22.101563-22.101563h20.566406v238.933594h-20.566406c-12.199219-.015625-22.085937-9.902344-22.101563-22.101562zm102.398438 373.476562-.398438.921875c-3.566406 8.113282-6.035156 16.660156-7.347656 25.421875-.378906 2.726563-.566406 5.476563-.554687 8.226563l-.230469 39.125v8.59375h-110.933594v-46.625c.0625-6.058594-.609375-12.101563-2.003906-18-.710938-2.882813-1.296875-5.75-1.878906-8.601563-.675782-3.335937-1.355469-6.636719-2.191406-9.914062l-32.566407-127.710938c-.082031-.332031-.1875-.648437-.296875-.964843-3.222656-8.230469-4.351562-17.136719-3.292968-25.914063 5.402343-42.027344 26.921874-92.96875 42.230468-125.117187v134.957031c.007813 11.371093 4.699219 22.234375 12.96875 30.035156 7.460938 7.109375 17.53125 10.816406 27.820313 10.242187 20.226562-1.28125 35.984375-18.046874 36.011719-38.316406v-112.742187c-.023438-11.28125 8.742187-20.628907 20-21.332031 5.59375-.308594 11.058593 1.742187 15.070312 5.648437 4.855469 4.585937 7.601562 10.96875 7.59375 17.648437v108.011719c0 .796875.113281 1.589844.335938 2.355469.210937.742188 21.996093 78.285156-.335938 144.050781zm51.203125-156.644531v-2.933594c.050781-10.585937 5.867187-20.304687 15.171875-25.355468l42.136719-23.261719c6.746093-3.675781 10.949219-10.738281 10.957031-18.421875v-11.949219c0-3.253906-1.269531-6.378906-3.535156-8.71875-7.660156-8.847656-13.882813-18.84375-18.429688-29.628906-.445312-1.074219-1.101562-2.050781-1.929687-2.867188l-1.707031-1.570312v-18.023438l1.75-1.703125c1.636718-1.605468 2.558593-3.800781 2.558593-6.09375v-32.828125c3.621094-21.058593 38.027344-21.445312 38.359375-21.445312.332032 0 34.722656.25 38.398438 21.445312v32.808594c0 2.292969.925781 4.488281 2.5625 6.09375l1.707031 1.570313.042969 18.023437-1.75 1.707031c-.828125.816406-1.484375 1.792969-1.929688 2.867188-4.546875 10.78125-10.769531 20.78125-18.433594 29.628906-2.265624 2.339844-3.535156 5.476562-3.53125 8.734375v11.949219c.011719 7.667968 4.203126 14.71875 10.929688 18.398437l42.183594 23.277344c9.296875 5.054687 15.105468 14.777344 15.152344 25.363281v2.933594zm264.53125-22.101562c-.011719 12.199218-9.898437 22.085937-22.101563 22.101562h-54.699218v-2.933594c-.054688-16.804687-9.246094-32.242187-23.996094-40.296875l-42.179688-23.285156c-1.277343-.683594-2.078124-2.007813-2.089843-3.457031v-10.164063c8.214843-9.617187 14.949219-20.40625 19.984375-32.007812l.546875-.546875c3.246093-3.15625 5.074219-7.496094 5.070312-12.023438v-18.167968c.003907-4.125-1.515625-8.109376-4.269531-11.1875v-29.960938c0-.410156-.03125-.820312-.09375-1.226562-5.261719-36.191407-53.332031-36.609376-55.371094-36.609376-2.039062 0-50.109375.417969-55.371094 36.609376-.0625.40625-.09375.816406-.097656 1.226562v29.960938c-2.75 3.078124-4.269531 7.0625-4.265625 11.1875v18.167968c0 4.554688 1.847657 8.910156 5.121094 12.074219l.539063.53125c5.023437 11.585937 11.746093 22.363281 19.941406 31.972656v10.164063c-.019532 1.453125-.832032 2.777344-2.117188 3.457031l-42.144531 23.261719c-14.757813 8.054687-23.957031 23.503906-24.003906 40.320312v2.933594h-17.070313v-97.773438c-.011718-11.371093-4.703125-22.234374-12.96875-30.039062-7.460937-7.109375-17.53125-10.8125-27.820312-10.238281-6.773438.433593-13.3125 2.664062-18.941406 6.457031v-107.339844h336.296874c12.203126.015625 22.089844 9.902344 22.101563 22.101563v20.566406c0 4.710937-3.820313 8.53125-8.53125 8.53125-14.140625 0-25.601563 11.460937-25.601563 25.601563v85.332031c0 14.140625 11.460938 25.601562 25.601563 25.601562 4.710937 0 8.53125 3.820313 8.53125 8.53125zm0-150.136719v105.542969c-2.730469-1.011719-5.617187-1.542969-8.53125-1.570313-4.714844 0-8.535156-3.820313-8.535156-8.535156v-85.332031c0-4.714844 3.820312-8.535157 8.535156-8.535157 2.914063-.027343 5.800781-.558593 8.53125-1.570312zm0 0"/></svg>