<?xml version="1.0"?>
<svg xmlns="http://www.w3.org/2000/svg" height="512px" viewBox="1 -15 511.9995 511" width="512px"><path d="m15 480.5h209.867188c.867187 0 6.984374-.765625 9.0625-1.804688l84.851562-42.425781c1.3125-.65625 2.777344-1.6875 3.898438-2.808593 11.160156-11.160157 174.121093-174.125 184.925781-184.929688 5.859375-5.855469 5.859375-15.351562 0-21.210938l-42.425781-42.425781c-5.855469-5.859375-15.355469-5.859375-21.210938 0-28.324219 28.320313-163.210938 163.210938-184.929688 184.925781-1.167968 1.167969-2.195312 2.675782-2.808593 3.898438l-38.390625 76.78125h-202.839844c-8.285156 0-15 6.714844-15 15s6.714844 15 15 15zm258.757812-74.753906 12.996094 12.996094-25.992187 12.996093zm138.390626-146.605469 21.210937 21.210937-121.285156 121.289063-21.214844-21.214844zm42.425781-42.429687 21.210937 21.214843-21.210937 21.214844-21.214844-21.214844zm0 0" fill="#b0b3b5"/><path d="m45 240.5h145.785156l55.609375 55.605469c4.296875 4.296875 10.75 5.570312 16.347657 3.253906 5.605468-2.324219 9.257812-7.792969 9.257812-13.859375v-45h45c24.8125 0 45-20.1875 45-45v-150c0-24.8125-20.1875-45-45-45h-272c-24.8125 0-45 20.1875-45 45v150c0 24.8125 20.1875 45 45 45zm-15-195c0-8.269531 6.730469-15 15-15h272c8.269531 0 15 6.730469 15 15v150c0 8.269531-6.730469 15-15 15h-60c-8.285156 0-15 6.714844-15 15v23.785156l-34.394531-34.390625c-2.8125-2.8125-6.628907-4.394531-10.605469-4.394531h-152c-8.269531 0-15-6.730469-15-15zm0 0" fill="#b0b3b5"/><path d="m90 150.5c16.542969 0 30-13.457031 30-30s-13.457031-30-30-30-30 13.457031-30 30 13.457031 30 30 30zm0 0" fill="#b0b3b5"/><path d="m182 150.5c16.542969 0 30-13.457031 30-30s-13.457031-30-30-30-30 13.457031-30 30 13.457031 30 30 30zm0 0" fill="#b0b3b5"/><path d="m272 150.5c16.542969 0 30-13.457031 30-30s-13.457031-30-30-30-30 13.457031-30 30 13.457031 30 30 30zm0 0" fill="#b0b3b5"/></svg>
